# xmcd
#
# Track frame offsets:
#	150
#	14189
#	32965
#	55815
#	70090
#	83667
#	100383
#	121147
#	139647
#	156887
#	172556
#
# Disc length: 2507 seconds
#
# Revision: 1
# Processed by: cddbd v1.5.2PL0 Copyright (c) Steve Scherf et al.
# Submitted via: EasyCDDAExtractor 2010.6.0.0
#
DISCID=8809c90b
DTITLE=Kruttrøyk - Farande Fant
DYEAR=2009
DGENRE=Country
TTITLE0=Kallen Med Krag'en
TTITLE1=Nede Ved Vatnet
TTITLE2=Farande Fant
TTITLE3=Laurdagskveld I Vår Bygdeby
TTITLE4=Oppi Ein Dal
TTITLE5=Det Ekje Sånn Det Va
TTITLE6=Rastlaus
TTITLE7=Ei Å Vere Nær
TTITLE8=Siste Sjansen
TTITLE9=Kom Kom Kom
TTITLE10=Miriam
EXTD=
EXTT0=
EXTT1=
EXTT2=
EXTT3=
EXTT4=
EXTT5=
EXTT6=
EXTT7=
EXTT8=
EXTT9=
EXTT10=
PLAYORDER=
